<svg width="37" height="24" viewBox="0 0 37 24" fill="none" xmlns="http://www.w3.org/2000/svg">
<path d="M19.955 8.69999L15.425 4.16999C14.475 3.21999 13.165 2.70999 11.825 2.77999L6.82498 3.01999C4.82498 3.10999 3.23498 4.69999 3.13498 6.68999L2.89498 11.69C2.83498 13.03 3.33498 14.34 4.28498 15.29L8.81497 19.82C10.675 21.68 13.695 21.68 15.565 19.82L19.955 15.43C21.825 13.58 21.825 10.56 19.955 8.69999ZM9.62498 12.38C8.03498 12.38 6.74498 11.09 6.74498 9.49999C6.74498 7.90999 8.03498 6.61999 9.62498 6.61999C11.215 6.61999 12.505 7.90999 12.505 9.49999C12.505 11.09 11.215 12.38 9.62498 12.38Z" fill="#FFA5A8"/>
<path d="M16.295 8.69999L20.825 4.16999C21.775 3.21999 23.085 2.70999 24.425 2.77999L29.425 3.01999C31.425 3.10999 33.015 4.69999 33.115 6.68999L33.355 11.69C33.415 13.03 32.915 14.34 31.965 15.29L27.435 19.82C25.575 21.68 22.555 21.68 20.685 19.82L16.295 15.43C14.425 13.58 14.425 10.56 16.295 8.69999ZM26.625 12.38C28.215 12.38 29.505 11.09 29.505 9.49999C29.505 7.90999 28.215 6.61999 26.625 6.61999C25.035 6.61999 23.745 7.90999 23.745 9.49999C23.745 11.09 25.035 12.38 26.625 12.38Z" fill="#E60023"/>
</svg>
