<svg width="37" height="24" viewBox="0 0 37 24" fill="none" xmlns="http://www.w3.org/2000/svg">
<path d="M4.29489 15.3L8.82489 19.83C10.6849 21.6901 13.7049 21.6901 15.5749 19.83L19.9649 15.44C21.8249 13.58 21.8249 10.56 19.9649 8.69005L15.4249 4.17005C14.4749 3.22005 13.1649 2.71005 11.8249 2.78005L6.82489 3.02005C4.82489 3.11005 3.23489 4.70005 3.13489 6.69005L2.89489 11.69C2.83489 13.04 3.34489 14.35 4.29489 15.3Z" fill="#F9FAFB" stroke="#D0D5DD" stroke-width="1.5" stroke-linecap="round" stroke-linejoin="round"/>
<path d="M9.625 12C11.0057 12 12.125 10.8808 12.125 9.50005C12.125 8.11933 11.0057 7.00005 9.625 7.00005C8.24429 7.00005 7.125 8.11933 7.125 9.50005C7.125 10.8808 8.24429 12 9.625 12Z" stroke="#D0D5DD" stroke-width="1.5" stroke-linecap="round"/>
<path d="M31.9551 15.3L27.4251 19.83C25.5651 21.6901 22.5451 21.6901 20.6751 19.83L16.2851 15.44C14.4251 13.58 14.4251 10.56 16.2851 8.69005L20.8251 4.17005C21.7751 3.22005 23.0851 2.71005 24.4251 2.78005L29.4251 3.02005C31.4251 3.11005 33.0151 4.70005 33.1151 6.69005L33.3551 11.69C33.4151 13.04 32.9051 14.35 31.9551 15.3Z" fill="#F9FAFB" stroke="#D0D5DD" stroke-width="1.5" stroke-linecap="round" stroke-linejoin="round"/>
<path d="M26.625 12C25.2443 12 24.125 10.8808 24.125 9.50005C24.125 8.11933 25.2443 7.00005 26.625 7.00005C28.0057 7.00005 29.125 8.11933 29.125 9.50005C29.125 10.8808 28.0057 12 26.625 12Z" stroke="#D0D5DD" stroke-width="1.5" stroke-linecap="round"/>
</svg>
