<svg width="25" height="24" viewBox="0 0 25 24" fill="none" xmlns="http://www.w3.org/2000/svg">
<path d="M12.995 12.78C12.925 12.77 12.835 12.77 12.755 12.78C10.995 12.72 9.59497 11.28 9.59497 9.51001C9.59497 7.70001 11.055 6.23001 12.875 6.23001C14.685 6.23001 16.155 7.70001 16.155 9.51001C16.145 11.28 14.755 12.72 12.995 12.78Z" stroke="#D0D5DD" stroke-width="1.5" stroke-linecap="round" stroke-linejoin="round"/>
<path d="M19.615 19.38C17.835 21.01 15.475 22 12.875 22C10.275 22 7.91501 21.01 6.13501 19.38C6.23501 18.44 6.83501 17.52 7.90501 16.8C10.645 14.98 15.125 14.98 17.845 16.8C18.915 17.52 19.515 18.44 19.615 19.38Z" stroke="#D0D5DD" stroke-width="1.5" stroke-linecap="round" stroke-linejoin="round"/>
<path d="M12.875 22C18.3978 22 22.875 17.5228 22.875 12C22.875 6.47715 18.3978 2 12.875 2C7.35215 2 2.875 6.47715 2.875 12C2.875 17.5228 7.35215 22 12.875 22Z" stroke="#D0D5DD" stroke-width="1.5" stroke-linecap="round" stroke-linejoin="round"/>
</svg>
